<?xml version="1.0" encoding="UTF-8" standalone="no"?>
<svg
	xmlns="http://www.w3.org/2000/svg"
   version="1.1"
   viewBox="0 0 126 126">
	<style>
   
.cls-200{fill:none; stroke-width:2px; stroke:red;stroke-miterlimit:10;}
.cls-300{fill: none; stroke-linejoin:round; stroke:#000;stroke-linecap:round;stroke-width:2px; stroke-miterlimit:10;}
.cls-310{fill: none; stroke-linejoin:round; stroke:#000;stroke-linecap:round;stroke-width:0.666px; stroke-miterlimit:10;}
.cls-210{fill:none; stroke-width:0.666px; stroke:red;stroke-miterlimit:10;}

.cls-1,.cls-4,.cls-5{fill:none; stroke-miterlimit:10;}
.cls-1{opacity:.8;stroke-width:1px;}
.cls-6{opacity:.4;stroke-width:1px;}
.NO_BG_LINES, .cls-1,.cls-4,.cls-5,.cls-6{stroke:none;}
._LIGHT_BLUE, .cls-1,.cls-4,.cls-5,.cls-6{stroke:rgb(153, 230, 246);}
.cls-5{stroke-width:.25px;}

.def {
      font: 40px sans-serif;
      stroke: blue;
      fill: white;
    }
    .shablona {
      font: 40px sans-serif;
      stroke: green;
      fill: white;
    }
    .heavy {
      font: bold 30px sans-serif;
    }
    /* Note that the color of the text is set with the    *
     * fill property, the color property is for HTML only */
    .Rrrrr {
      font: italic 40px serif;
      fill: red;
    }
  </style>
	<metadata>
		<JSON_Descriptor></JSON_Descriptor>
	</metadata>
	<g transform="scale(3)">
		<g transform = "translate(0 0)">
			<g id="42x42_spectro" transform="scale(1)">
				<g id="bg grid 2x2x21 pix blocks">
					<line class="cls-1" x1="0" y1="0" x2="0" y2="42"/>
					<line class="cls-6" x1="5.25" y1="0" x2="5.25" y2="42"/>
					<line class="cls-6" x1="15.75" y1="0" x2="15.75" y2="42"/>
					<line class="cls-1" x1="21" y1="0" x2="21" y2="42"/>
					<line class="cls-6" x1="26.25" y1="0" x2="26.25" y2="42"/>
					<line class="cls-6" x1="36.75" y1="0" x2="36.75" y2="42"/>
					<line class="cls-1" x1="42" y1="0" x2="42" y2="42"/>
					<line class="cls-1" x1="0" y1="0" x2="42" y2="0"/>
					<line class="cls-6" x1="0" y1="5.25" x2="42" y2="5.25"/>
					<line class="cls-6" x1="0" y1="15.75" x2="42" y2="15.75"/>
					<line class="cls-1" x1="0" y1="21" x2="42" y2="21"/>
					<line class="cls-6" x1="0" y1="26.25" x2="42" y2="26.25"/>
					<line class="cls-6" x1="0" y1="36.75" x2="42" y2="36.75"/>
					<line class="cls-1" x1="0" y1="42" x2="42" y2="42"/>
				</g>
				<g id="shape 42x42_spectro" transform="scale(0.3523)">
					<path class="cls-300" d="M43.94,103.46h0c0-4.02,1.52-7.68,4.01-10.44"/>
					<path class="cls-300" d="M26.57,72.56c-6.81,7.31-10.98,17.11-10.98,27.89h0v3.02"/>
					<line class="cls-300" x1="15.59" y1="119.06" x2="15.59" y2="103.46"/>
					<line class="cls-300" x1="43.94" y1="103.46" x2="43.94" y2="119.06"/>
					<path class="cls-300" d="M94.96,59.53c0,19.57-15.86,35.43-35.43,35.43-4.05,0-7.95-.68-11.58-1.93"/>
					<path class="cls-300" d="M26.57,72.56c-1.6-4.03-2.47-8.43-2.47-13.03"/>
					<path class="cls-300" d="M75.12,15.59h0c0,4.02-1.52,7.68-4.01,10.44"/>
					<path class="cls-300" d="M92.49,46.5c6.81-7.31,10.98-17.11,10.98-27.89h0v-3.02"/>
					<line class="cls-300" x1="103.46" y1="15.59" x2="103.46" y2="0"/>
					<line class="cls-300" x1="75.12" y1="0" x2="75.12" y2="15.59"/>
					<path class="cls-300" d="M24.09,59.53c0-19.57,15.86-35.43,35.43-35.43,4.05,0,7.95,.68,11.58,1.93"/>
					<path class="cls-300" d="M92.49,46.5c1.6,4.03,2.47,8.43,2.47,13.03"/>
					<circle class="cls-200" cx="17.16" cy="59.53" r="5.67"/>
					<circle class="cls-300" cx="17.16" cy="59.53" r="7.09"/>
					<circle class="cls-300" cx="101.9" cy="59.53" r="7.09"/>
					<circle class="cls-200" cx="101.9" cy="59.53" r="5.67"/>
				</g>
			</g>
		</g>
	</g>
</svg>
