<?xml version="1.0" encoding="UTF-8" standalone="no"?>
<svg
	xmlns="http://www.w3.org/2000/svg"
   version="1.1"
   viewBox="0 0 189 189">
	<style>
   
.cls-200{fill:none; stroke-width:2px; stroke:red;stroke-miterlimit:10;}
.cls-300{fill: none; stroke-linejoin:round; stroke:#000;stroke-linecap:round;stroke-width:2px; stroke-miterlimit:10;}
.cls-310{fill: none; stroke-linejoin:round; stroke:#000;stroke-linecap:round;stroke-width:0.666px; stroke-miterlimit:10;}
.cls-210{fill:none; stroke-width:0.666px; stroke:red;stroke-miterlimit:10;}

.cls-1,.cls-4,.cls-5{fill:none; stroke-miterlimit:10;}
.cls-1{opacity:.8;stroke-width:1px;}
.cls-6{opacity:.4;stroke-width:1px;}
.NO_BG_LINES, .cls-1,.cls-4,.cls-5,.cls-6{stroke:none;}
._LIGHT_BLUE, .cls-1,.cls-4,.cls-5,.cls-6{stroke:rgb(153, 230, 246);}
.cls-5{stroke-width:.25px;}

.def {
      font: 40px sans-serif;
      stroke: blue;
      fill: white;
    }
    .shablona {
      font: 40px sans-serif;
      stroke: green;
      fill: white;
    }
    .heavy {
      font: bold 30px sans-serif;
    }
    /* Note that the color of the text is set with the    *
     * fill property, the color property is for HTML only */
    .Rrrrr {
      font: italic 40px serif;
      fill: red;
    }
  </style>
	<metadata>
		<JSON_Descriptor></JSON_Descriptor>
	</metadata>
	<g transform="scale(3)">
		<g id="63X63_stumuli">
			<g id="bg grid 3x3x21 pix blocks">
				<line class="cls-1" x1="0" y1="0" x2="0" y2="63"/>
				<line class="cls-6" x1="5.25" y1="0" x2="5.25" y2="63"/>
				<line class="cls-6" x1="15.75" y1="0" x2="15.75" y2="63"/>
				<line class="cls-1" x1="21" y1="0" x2="21" y2="63"/>
				<line class="cls-6" x1="26.25" y1="0" x2="26.25" y2="63"/>
				<line class="cls-6" x1="36.75" y1="0" x2="36.75" y2="63"/>
				<line class="cls-1" x1="42" y1="0" x2="42" y2="63"/>
				<line class="cls-6" x1="47.25" y1="0" x2="47.25" y2="63"/>
				<line class="cls-6" x1="57.75" y1="0" x2="57.75" y2="63"/>
				<line class="cls-1" x1="63" y1="0" x2="63" y2="63"/>
				<line class="cls-1" x1="0" y1="0" x2="63" y2="0"/>
				<line class="cls-6" x1="0" y1="5.25" x2="63" y2="5.25"/>
				<line class="cls-6" x1="0" y1="15.75" x2="63" y2="15.75"/>
				<line class="cls-1" x1="0" y1="21" x2="63" y2="21"/>
				<line class="cls-6" x1="0" y1="26.25" x2="63" y2="26.25"/>
				<line class="cls-6" x1="0" y1="36.75" x2="63" y2="36.75"/>
				<line class="cls-1" x1="0" y1="42" x2="63" y2="42"/>
				<line class="cls-6" x1="0" y1="47.25" x2="63" y2="47.25"/>
				<line class="cls-6" x1="0" y1="57.75" x2="63" y2="57.75"/>
				<line class="cls-1" x1="0" y1="63" x2="63" y2="63"/>
			</g>
			<g id="shape 63X63_stumuli"  transform="scale(0.352804342207289)">
				<circle class="cls-200" cx="148.82" cy="29.76" r="12.76"/>
				<circle class="cls-200" cx="29.76" cy="29.76" r="12.76"/>
				<circle class="cls-200" cx="148.82" cy="148.82" r="12.76"/>
				<circle class="cls-200" cx="29.76" cy="148.82" r="12.76"/>
				<path class="cls-300"
          d="M75.47,49.07c-6.09,2.09-11.56,5.53-16.05,9.96-4.6,4.55-8.18,10.14-10.33,16.39m80.36-.13c-2.18-6.24-5.76-11.81-10.38-16.34-4.49-4.41-9.96-7.83-16.05-9.9m.08,80.48c12.29-4.22,22.04-13.92,26.33-26.17m-80.36-.21c4.29,12.46,14.2,22.31,26.71,26.49"/>
				<line class="cls-300" x1="75.12" y1="129.39" x2="75.11" y2="178.58"/>
				<line class="cls-300" x1="75.12" y1="0" x2="75.12" y2="49.19"/>
				<line class="cls-300" x1="103.46" y1="0" x2="103.46" y2="49.19"/>
				<line class="cls-300" x1="103.47" y1="129.39" x2="103.47" y2="178.58"/>
				<line class="cls-300" x1="129.39" y1="75.12" x2="178.58" y2="75.12"/>
				<line class="cls-300" x1="129.39" y1="103.46" x2="178.58" y2="103.46"/>
				<line class="cls-300" y1="75.12" x2="49.2" y2="75.12"/>
				<line class="cls-300" y1="103.46" x2="49.2" y2="103.46"/>
			</g>
		</g>
	</g>
</svg>
